<?xml version="1.0" ?><svg viewBox="0 0 61.68 91.98" xmlns="http://www.w3.org/2000/svg"><defs><style>.cls-1,.cls-3{fill:#5590cc;}.cls-1{opacity:0.25;}.cls-2{fill:#fff;stroke:#5590cc;stroke-linejoin:round;}</style></defs><title/><g data-name="Capa 2" id="Capa_2"><g data-name="Capa 1" id="Capa_1-2"><rect class="cls-1" data-name="&lt;Rectángulo&gt;" height="52.03" id="_Rectángulo_" transform="translate(52.58 -3.15) rotate(45)" width="33.08" x="13.55" y="35.88"/><rect class="cls-2" data-name="&lt;Rectángulo&gt;" height="52.03" id="_Rectángulo_2" transform="translate(37.59 -10.18) rotate(45)" width="33.08" x="14.55" y="14.27"/><rect class="cls-2" data-name="&lt;Rectángulo&gt;" height="52.03" id="_Rectángulo_3" transform="translate(34.23 -11.58) rotate(45)" width="33.08" x="14.55" y="9.52"/><rect class="cls-2" data-name="&lt;Trazado&gt;" height="33.08" id="_Trazado_" transform="translate(-12.53 30.94) rotate(-45)" width="52.03" x="5.07" y="14.05"/><rect class="cls-2" data-name="&lt;Trazado&gt;" height="15.76" id="_Trazado_2" transform="translate(-12.54 30.97) rotate(-45)" width="52.03" x="5.1" y="22.74"/><rect class="cls-3" data-name="&lt;Rectángulo&gt;" height="8.37" id="_Rectángulo_4" transform="translate(24.38 -28.47) rotate(45)" width="32.76" x="30.17" y="11.01"/><rect class="cls-1" data-name="&lt;Rectángulo&gt;" height="3.48" id="_Rectángulo_5" transform="translate(27.3 -21.43) rotate(45)" width="32.76" x="23.13" y="20.5"/><rect class="cls-1" data-name="&lt;Rectángulo&gt;" height="3.48" id="_Rectángulo_6" transform="translate(29.5 -16.11) rotate(45)" width="32.76" x="17.82" y="25.81"/><rect class="cls-1" data-name="&lt;Rectángulo&gt;" height="3.48" id="_Rectángulo_7" transform="translate(31.7 -10.8) rotate(45)" width="32.76" x="12.51" y="31.12"/><rect class="cls-1" data-name="&lt;Rectángulo&gt;" height="3.48" id="_Rectángulo_8" transform="translate(33.9 -5.49) rotate(45)" width="32.76" x="7.19" y="36.44"/><rect class="cls-1" data-name="&lt;Rectángulo&gt;" height="3.48" id="_Rectángulo_9" transform="translate(36.1 -0.18) rotate(45)" width="32.76" x="1.88" y="41.75"/></g></g></svg>